# xmcd
#
# Track frame offsets:
#	150
#	17325
#	46591
#	61379
#	90513
#
# Disc length: 1390 seconds
#
# Revision: 1
# Processed by: cddbd v1.5.2PL0 Copyright (c) Steve Scherf et al.
# Submitted via: audiograbber 1.83.01
#
DISCID=2b056c05
DTITLE=Iyaz - Warner Brothers Promo - Replay
DYEAR=2009
DGENRE=Dance
TTITLE0=Replay (Jason Nevins Edit)
TTITLE1=Replay (Jason Nevins Extended Mix)
TTITLE2=Replay (D Hotwheel Remix)
TTITLE3=Replay (Ruff Loaderz Remix)
TTITLE4=Replay
EXTD=
EXTT0=
EXTT1=
EXTT2=
EXTT3=
EXTT4=
PLAYORDER=
